<svg width="123" height="34" viewBox="0 0 123 34" fill="none" xmlns="http://www.w3.org/2000/svg">
<path d="M12.3047 22.2139H15.3564C15.2588 23.3776 14.9333 24.4152 14.3799 25.3267C13.8265 26.23 13.0493 26.9421 12.0483 27.4629C11.0474 27.9837 9.83073 28.2441 8.39844 28.2441C7.2998 28.2441 6.31104 28.0488 5.43213 27.6582C4.55322 27.2594 3.80046 26.6979 3.17383 25.9736C2.5472 25.2412 2.06706 24.3582 1.7334 23.3247C1.40788 22.2912 1.24512 21.1356 1.24512 19.8579V18.3809C1.24512 17.1032 1.41195 15.9476 1.74561 14.9141C2.0874 13.8805 2.57568 12.9976 3.21045 12.2651C3.84521 11.5246 4.60612 10.959 5.49316 10.5684C6.38835 10.1777 7.39339 9.98242 8.5083 9.98242C9.92432 9.98242 11.1206 10.2428 12.0972 10.7637C13.0737 11.2845 13.8306 12.0047 14.3677 12.9243C14.9129 13.8439 15.2466 14.8978 15.3687 16.0859H12.3169C12.2355 15.321 12.0565 14.6659 11.7798 14.1206C11.5112 13.5754 11.1125 13.1603 10.5835 12.8755C10.0545 12.5825 9.36279 12.436 8.5083 12.436C7.80843 12.436 7.19808 12.5662 6.67725 12.8267C6.15641 13.0871 5.72103 13.4696 5.37109 13.9741C5.02116 14.4787 4.75667 15.1012 4.57764 15.8418C4.40674 16.5742 4.32129 17.4124 4.32129 18.3564V19.8579C4.32129 20.7531 4.3986 21.5669 4.55322 22.2993C4.71598 23.0236 4.96012 23.6462 5.28564 24.167C5.6193 24.6878 6.04248 25.0907 6.55518 25.3755C7.06787 25.6603 7.68229 25.8027 8.39844 25.8027C9.26921 25.8027 9.97314 25.6644 10.5103 25.3877C11.0555 25.111 11.4665 24.7082 11.7432 24.1792C12.028 23.6421 12.2152 22.987 12.3047 22.2139ZM21.252 9.25V28H18.3223V9.25H21.252ZM20.7393 20.9077L19.7871 20.8955C19.7952 19.984 19.9214 19.1418 20.1655 18.3687C20.4178 17.5955 20.7677 16.9242 21.2153 16.3545C21.6711 15.7767 22.2163 15.3332 22.8511 15.0239C23.4858 14.7065 24.1898 14.5479 24.9629 14.5479C25.6139 14.5479 26.1999 14.6374 26.7207 14.8164C27.2497 14.9954 27.7054 15.2843 28.0879 15.6831C28.4704 16.0737 28.7593 16.5864 28.9546 17.2212C29.158 17.8478 29.2598 18.6128 29.2598 19.5161V28H26.3057V19.4917C26.3057 18.8569 26.2121 18.3524 26.0249 17.978C25.8459 17.6037 25.5814 17.3351 25.2314 17.1724C24.8815 17.0015 24.4543 16.916 23.9497 16.916C23.4207 16.916 22.9528 17.0218 22.5459 17.2334C22.1471 17.445 21.8135 17.7339 21.5449 18.1001C21.2764 18.4663 21.0729 18.8895 20.9346 19.3696C20.8044 19.8498 20.7393 20.3625 20.7393 20.9077ZM35.8877 14.792V28H32.9336V14.792H35.8877ZM32.7383 11.3252C32.7383 10.8776 32.8848 10.5073 33.1777 10.2144C33.4788 9.91325 33.8939 9.7627 34.4229 9.7627C34.9437 9.7627 35.3547 9.91325 35.6558 10.2144C35.9569 10.5073 36.1074 10.8776 36.1074 11.3252C36.1074 11.7646 35.9569 12.1309 35.6558 12.4238C35.3547 12.7168 34.9437 12.8633 34.4229 12.8633C33.8939 12.8633 33.4788 12.7168 33.1777 12.4238C32.8848 12.1309 32.7383 11.7646 32.7383 11.3252ZM42.5645 17.3311V33.0781H39.6226V14.792H42.3325L42.5645 17.3311ZM51.1704 21.2739V21.5303C51.1704 22.4906 51.0565 23.3817 50.8286 24.2036C50.6089 25.0174 50.2793 25.7295 49.8398 26.3398C49.4085 26.9421 48.8755 27.41 48.2407 27.7437C47.606 28.0773 46.8735 28.2441 46.0435 28.2441C45.2215 28.2441 44.5013 28.0936 43.8828 27.7925C43.2725 27.4832 42.7557 27.0479 42.3325 26.4863C41.9093 25.9248 41.5675 25.2656 41.3071 24.5088C41.0549 23.7438 40.8758 22.9056 40.77 21.9941V21.0054C40.8758 20.0369 41.0549 19.158 41.3071 18.3687C41.5675 17.5793 41.9093 16.8997 42.3325 16.3301C42.7557 15.7604 43.2725 15.321 43.8828 15.0117C44.4932 14.7025 45.2052 14.5479 46.019 14.5479C46.8491 14.5479 47.5856 14.7106 48.2285 15.0361C48.8714 15.3535 49.4126 15.8092 49.8521 16.4033C50.2915 16.9893 50.6211 17.6973 50.8408 18.5273C51.0605 19.3493 51.1704 20.2648 51.1704 21.2739ZM48.2285 21.5303V21.2739C48.2285 20.6636 48.1715 20.098 48.0576 19.5771C47.9437 19.0482 47.7646 18.5843 47.5205 18.1855C47.2764 17.7868 46.9631 17.4775 46.5806 17.2578C46.2062 17.0299 45.7546 16.916 45.2256 16.916C44.7048 16.916 44.2572 17.0055 43.8828 17.1846C43.5085 17.3555 43.1951 17.5955 42.9429 17.9048C42.6906 18.214 42.4953 18.5762 42.3569 18.9912C42.2186 19.3981 42.1209 19.8416 42.064 20.3218V22.6899C42.1616 23.2759 42.3285 23.813 42.5645 24.3013C42.8005 24.7896 43.1341 25.1802 43.5654 25.4731C44.0049 25.758 44.5664 25.9004 45.25 25.9004C45.779 25.9004 46.2306 25.7865 46.605 25.5586C46.9793 25.3307 47.2845 25.0174 47.5205 24.6187C47.7646 24.2118 47.9437 23.7438 48.0576 23.2148C48.1715 22.6859 48.2285 22.1243 48.2285 21.5303Z" fill="#646464"/>
<path d="M61.2041 20.1997H56.6387L56.6143 17.6851H60.4473C61.1227 17.6851 61.6761 17.5996 62.1074 17.4287C62.5387 17.2497 62.8602 16.9933 63.0718 16.6597C63.2915 16.3179 63.4014 15.9028 63.4014 15.4146C63.4014 14.8612 63.2956 14.4136 63.084 14.0718C62.8805 13.73 62.5591 13.4818 62.1196 13.3271C61.6883 13.1725 61.1309 13.0952 60.4473 13.0952H57.9082V28H54.2461V10.2266H60.4473C61.4808 10.2266 62.4045 10.3242 63.2183 10.5195C64.0402 10.7148 64.736 11.0119 65.3057 11.4106C65.8753 11.8094 66.3107 12.314 66.6118 12.9243C66.9129 13.5265 67.0635 14.2427 67.0635 15.0728C67.0635 15.8052 66.8966 16.4806 66.563 17.0991C66.2375 17.7176 65.7207 18.2222 65.0127 18.6128C64.3128 19.0034 63.3973 19.2191 62.2661 19.2598L61.2041 20.1997ZM61.0454 28H55.6377L57.0659 25.1436H61.0454C61.6883 25.1436 62.2132 25.0418 62.6201 24.8384C63.027 24.6268 63.3281 24.342 63.5234 23.9839C63.7188 23.6258 63.8164 23.2148 63.8164 22.751C63.8164 22.2301 63.7269 21.7785 63.5479 21.396C63.377 21.0135 63.1003 20.7205 62.7178 20.5171C62.3353 20.3055 61.8307 20.1997 61.2041 20.1997H57.6763L57.7007 17.6851H62.0952L62.9375 18.6738C64.0199 18.6576 64.8906 18.8488 65.5498 19.2476C66.2171 19.6382 66.7013 20.1468 67.0024 20.7734C67.3117 21.4001 67.4663 22.0715 67.4663 22.7876C67.4663 23.9269 67.2181 24.8872 66.7217 25.6685C66.2253 26.4416 65.4969 27.0234 64.5366 27.4141C63.5845 27.8047 62.4207 28 61.0454 28ZM69.9316 21.5303V21.2739C69.9316 20.3055 70.07 19.4144 70.3467 18.6006C70.6234 17.7786 71.0262 17.0666 71.5552 16.4644C72.0841 15.8621 72.7352 15.3942 73.5083 15.0605C74.2814 14.7188 75.1685 14.5479 76.1694 14.5479C77.1704 14.5479 78.0615 14.7188 78.8428 15.0605C79.624 15.3942 80.2791 15.8621 80.8081 16.4644C81.3452 17.0666 81.7521 17.7786 82.0288 18.6006C82.3055 19.4144 82.4438 20.3055 82.4438 21.2739V21.5303C82.4438 22.4906 82.3055 23.3817 82.0288 24.2036C81.7521 25.0174 81.3452 25.7295 80.8081 26.3398C80.2791 26.9421 79.6281 27.41 78.855 27.7437C78.0819 28.0773 77.1948 28.2441 76.1938 28.2441C75.1929 28.2441 74.3018 28.0773 73.5205 27.7437C72.7474 27.41 72.0923 26.9421 71.5552 26.3398C71.0262 25.7295 70.6234 25.0174 70.3467 24.2036C70.07 23.3817 69.9316 22.4906 69.9316 21.5303ZM73.4473 21.2739V21.5303C73.4473 22.0837 73.4961 22.6004 73.5938 23.0806C73.6914 23.5607 73.846 23.9839 74.0576 24.3501C74.2773 24.7082 74.5622 24.9889 74.9121 25.1924C75.262 25.3958 75.6893 25.4976 76.1938 25.4976C76.6821 25.4976 77.1012 25.3958 77.4512 25.1924C77.8011 24.9889 78.0819 24.7082 78.2935 24.3501C78.505 23.9839 78.6597 23.5607 78.7573 23.0806C78.8631 22.6004 78.916 22.0837 78.916 21.5303V21.2739C78.916 20.7368 78.8631 20.2323 78.7573 19.7603C78.6597 19.2801 78.501 18.8569 78.2812 18.4907C78.0697 18.1164 77.7889 17.8234 77.439 17.6118C77.089 17.4002 76.6659 17.2944 76.1694 17.2944C75.673 17.2944 75.2498 17.4002 74.8999 17.6118C74.5581 17.8234 74.2773 18.1164 74.0576 18.4907C73.846 18.8569 73.6914 19.2801 73.5938 19.7603C73.4961 20.2323 73.4473 20.7368 73.4473 21.2739ZM91.5742 14.792V17.2822H83.8838V14.792H91.5742ZM85.7881 11.5327H89.3037V24.0205C89.3037 24.403 89.3525 24.696 89.4502 24.8994C89.556 25.1029 89.7106 25.2453 89.9141 25.3267C90.1175 25.3999 90.3739 25.4365 90.6831 25.4365C90.9028 25.4365 91.0981 25.4284 91.269 25.4121C91.4481 25.3877 91.5986 25.3633 91.7207 25.3389L91.7329 27.9268C91.4318 28.0244 91.1063 28.1017 90.7563 28.1587C90.4064 28.2157 90.0199 28.2441 89.5967 28.2441C88.8236 28.2441 88.1481 28.118 87.5703 27.8657C87.0007 27.6053 86.5612 27.1903 86.252 26.6206C85.9427 26.0509 85.7881 25.3022 85.7881 24.3745V11.5327Z" fill="#3DA9FC"/>
<g clip-path="url(#clip0_227_2348)">
<path d="M122.223 0H98.7969C98.368 0 98.0203 0.346193 98.0203 0.773243V22.379C98.0203 22.806 98.368 23.1522 98.7969 23.1522H122.223C122.652 23.1522 123 22.806 123 22.379V0.773243C123 0.346193 122.652 0 122.223 0Z" fill="#3DA9FC"/>
<path d="M99.3276 21L96 29L106 22.1067L99.3276 21Z" fill="#3DA9FC"/>
<path d="M116.989 3.89505H103.911C102.78 3.89505 101.864 4.80774 101.864 5.9336V12.7107C101.864 13.8366 102.78 14.7493 103.911 14.7493H116.989C118.12 14.7493 119.037 13.8366 119.037 12.7107V5.9336C119.037 4.80774 118.12 3.89505 116.989 3.89505Z" fill="#F2F9FC"/>
<path d="M117.132 20.7658H104.264C101.916 20.7658 100.012 18.8714 100.012 16.5319H121.383C121.383 18.8696 119.481 20.7658 117.131 20.7658H117.132Z" fill="#F2F9FC"/>
<path d="M110.698 5.90116C110.143 5.90116 109.694 5.45236 109.694 4.89901V3.39218C109.694 2.83883 110.144 2.39183 110.698 2.39183C111.254 2.39183 111.703 2.84064 111.703 3.39218V4.89901C111.703 5.45236 111.252 5.90116 110.698 5.90116Z" fill="#F2F9FC"/>
<path d="M107.252 9.81201C107.764 9.30168 107.764 8.47429 107.252 7.96396C106.739 7.45364 105.908 7.45364 105.395 7.96396C104.883 8.47429 104.883 9.30168 105.395 9.81201C105.908 10.3223 106.739 10.3223 107.252 9.81201Z" fill="#3DA9FC"/>
<path d="M115.581 9.81257C116.093 9.30225 116.093 8.47485 115.581 7.96453C115.068 7.45421 114.237 7.45421 113.724 7.96453C113.212 8.47485 113.212 9.30225 113.724 9.81257C114.237 10.3229 115.068 10.3229 115.581 9.81257Z" fill="#3DA9FC"/>
</g>
<defs>
<clipPath id="clip0_227_2348">
<rect width="27" height="31" fill="white" transform="translate(96)"/>
</clipPath>
</defs>
</svg>
